PathFileType	4	(X/Y/Z)	 control3min.trc
DataRate	CameraRate	NumFrames	NumMarkers	Units	OrigDataRate	OrigDataStartFrame	OrigNumFrames
200	200	11	35	m	200	251	1000
Frame#	Time	C7			LSH			RSH			MAN			RASI			LASI			HIPR			HIPL			RPSI			LPSI			COX			RTHI1			RTHI2			RTHI3			RTHI4			RSHA1			RSHA2			RSHA3			RSHA4			RHEEL			RMET5			RMET1			RTOE			LTHI1			LTHI2			LTHI3			LTHI4			LSHA1			LSHA2			LSHA3			LSHA4			LHEEL			LMET5			LMET1			LTOE			
		X1	Y1	Z1	X2	Y2	Z2	X3	Y3	Z3	X4	Y4	Z4	X5	Y5	Z5	X6	Y6	Z6	X7	Y7	Z7	X8	Y8	Z8	X9	Y9	Z9	X10	Y10	Z10	X11	Y11	Z11	X12	Y12	Z12	X13	Y13	Z13	X14	Y14	Z14	X15	Y15	Z15	X16	Y16	Z16	X17	Y17	Z17	X18	Y18	Z18	X19	Y19	Z19	X20	Y20	Z20	X21	Y21	Z21	X22	Y22	Z22	X23	Y23	Z23	X24	Y24	Z24	X25	Y25	Z25	X26	Y26	Z26	X27	Y27	Z27	X28	Y28	Z28	X29	Y29	Z29	X30	Y30	Z30	X31	Y31	Z31	X32	Y32	Z32	X33	Y33	Z33	X34	Y34	Z34	X35	Y35	Z35	
251	1.2550	-0.000000	0.000000	-0.000000	-0.221799	1.429652	-0.723441	-0.229813	1.411938	-0.380769	-0.154893	1.386234	-0.553703	-0.139147	0.987697	-0.436913	-0.134369	0.987895	-0.659690	-0.194124	1.046032	-0.413010	-0.190788	1.037098	-0.691526	-0.295279	1.027438	-0.498273	-0.296611	1.025903	-0.605148	-0.297268	1.034170	-0.547883	-0.236755	0.791543	-0.379739	-0.219607	0.734447	-0.377563	-0.156571	0.751172	-0.371625	-0.167275	0.811862	-0.374775	-0.251553	0.410585	-0.369674	-0.267255	0.370314	-0.373313	-0.208863	0.355401	-0.382243	-0.198128	0.394510	-0.382469	-0.353111	0.137167	-0.430090	-0.230905	0.034889	-0.384160	-0.202076	0.038356	-0.454462	-0.178388	0.028764	-0.452924	-0.224322	0.785495	-0.730958	-0.201808	0.728257	-0.728998	-0.140318	0.746676	-0.722821	-0.153835	0.805520	-0.724174	-0.265642	0.373293	-0.724071	-0.280278	0.335539	-0.722215	-0.219847	0.319929	-0.713654	-0.212902	0.363311	-0.717445	-0.363231	0.122859	-0.669209	-0.235657	0.037134	-0.719152	-0.201453	0.038074	-0.654370	-0.178881	0.026777	-0.652946	
252	1.2600	-0.000000	0.000000	-0.000000	-0.221654	1.433523	-0.723176	-0.230517	1.415781	-0.381236	-0.155340	1.390323	-0.553690	-0.138942	0.990953	-0.437171	-0.133845	0.991261	-0.659696	-0.193721	1.049608	-0.413304	-0.189961	1.040823	-0.691519	-0.294552	1.031327	-0.498541	-0.295779	1.029908	-0.605405	-0.296614	1.038017	-0.548152	-0.237105	0.795000	-0.379773	-0.220242	0.737843	-0.377405	-0.157120	0.754268	-0.371277	-0.167536	0.814999	-0.374626	-0.252539	0.413211	-0.369647	-0.267821	0.372749	-0.373172	-0.209224	0.358396	-0.381693	-0.198885	0.397629	-0.382016	-0.351158	0.139495	-0.429497	-0.230157	0.035480	-0.384391	-0.201558	0.038781	-0.454146	-0.178212	0.028989	-0.452364	-0.224515	0.789479	-0.731417	-0.202226	0.732150	-0.729706	-0.140642	0.750300	-0.723684	-0.153921	0.809220	-0.724850	-0.266127	0.376001	-0.724454	-0.280426	0.338094	-0.722618	-0.219802	0.323033	-0.714601	-0.213266	0.366480	-0.718281	-0.361261	0.125374	-0.670075	-0.234788	0.037715	-0.719207	-0.201059	0.038526	-0.654755	-0.178742	0.027212	-0.653561	
253	1.2650	-0.000000	0.000000	-0.000000	-0.221492	1.437095	-0.722938	-0.231160	1.419354	-0.381669	-0.155757	1.394128	-0.553677	-0.138770	0.993976	-0.437441	-0.133371	0.994408	-0.659702	-0.193357	1.052931	-0.413580	-0.189207	1.044299	-0.691530	-0.293865	1.034988	-0.498803	-0.295001	1.033686	-0.605640	-0.295998	1.041648	-0.548412	-0.237491	0.798219	-0.379873	-0.220894	0.741005	-0.377341	-0.157722	0.757145	-0.370990	-0.167837	0.817907	-0.374481	-0.253432	0.415610	-0.369700	-0.268305	0.374978	-0.373102	-0.209529	0.361165	-0.381248	-0.199563	0.400508	-0.381693	-0.349283	0.141660	-0.428882	-0.229374	0.036199	-0.384685	-0.200971	0.039307	-0.453800	-0.177964	0.029258	-0.451701	-0.224740	0.793197	-0.731806	-0.202661	0.735783	-0.730347	-0.140983	0.753684	-0.724544	-0.154037	0.812673	-0.725521	-0.266487	0.378504	-0.724785	-0.280472	0.340465	-0.722997	-0.219681	0.325911	-0.715459	-0.213524	0.369419	-0.719013	-0.359444	0.127710	-0.671009	-0.233888	0.038403	-0.719233	-0.200602	0.039135	-0.655256	-0.178498	0.027821	-0.654348	
254	1.2700	-0.000000	0.000000	-0.000000	-0.221271	1.440368	-0.722729	-0.231704	1.422668	-0.382046	-0.156141	1.397640	-0.553664	-0.138631	0.996757	-0.437718	-0.132948	0.997329	-0.659713	-0.193028	1.055997	-0.413846	-0.188524	1.047521	-0.691554	-0.293228	1.038408	-0.499052	-0.294286	1.037216	-0.605856	-0.295425	1.045047	-0.548661	-0.237908	0.801202	-0.380044	-0.221561	0.743925	-0.377383	-0.158373	0.759798	-0.370772	-0.168186	0.820581	-0.374336	-0.254222	0.417787	-0.369794	-0.268710	0.377005	-0.373097	-0.209769	0.363692	-0.380912	-0.200158	0.403149	-0.381441	-0.347506	0.143644	-0.428276	-0.228553	0.037062	-0.385009	-0.200326	0.039931	-0.453429	-0.177642	0.029582	-0.450946	-0.225002	0.796628	-0.732112	-0.203113	0.739137	-0.730905	-0.141343	0.756810	-0.725395	-0.154196	0.815848	-0.726177	-0.266721	0.380798	-0.725113	-0.280415	0.342640	-0.723392	-0.219478	0.328549	-0.716225	-0.213667	0.372114	-0.719644	-0.357827	0.129845	-0.671997	-0.232956	0.039229	-0.719251	-0.200039	0.039949	-0.655873	-0.178107	0.028640	-0.655283	
255	1.2750	-0.000000	0.000000	-0.000000	-0.220949	1.443340	-0.722550	-0.232144	1.425708	-0.382394	-0.156485	1.400849	-0.553653	-0.138526	0.999297	-0.438000	-0.132578	1.000006	-0.659735	-0.192745	1.058806	-0.414105	-0.187913	1.050482	-0.691590	-0.292649	1.041571	-0.499293	-0.293644	1.040493	-0.606056	-0.294899	1.048213	-0.548909	-0.238354	0.803915	-0.380302	-0.222238	0.746589	-0.377529	-0.159085	0.762252	-0.370662	-0.168577	0.823015	-0.374197	-0.254889	0.419738	-0.369922	-0.269026	0.378839	-0.373144	-0.209947	0.365978	-0.380697	-0.200655	0.405523	-0.381298	-0.345889	0.145423	-0.427696	-0.227703	0.038087	-0.385315	-0.199623	0.040670	-0.453043	-0.177242	0.029997	-0.450133	-0.225302	0.799749	-0.732323	-0.203582	0.742189	-0.731369	-0.141715	0.759662	-0.726242	-0.154394	0.818734	-0.726818	-0.266813	0.382886	-0.725451	-0.280251	0.344629	-0.723814	-0.219193	0.330933	-0.716888	-0.213690	0.374556	-0.720177	-0.356442	0.131755	-0.672994	-0.232010	0.040224	-0.719317	-0.199354	0.041001	-0.656585	-0.177545	0.029701	-0.656316	
256	1.2800	-0.000000	0.000000	-0.000000	-0.220945	1.446036	-0.722495	-0.232476	1.428460	-0.382723	-0.156781	1.403744	-0.553643	-0.138455	1.001593	-0.438290	-0.132265	1.002434	-0.659764	-0.192501	1.061357	-0.414365	-0.187375	1.053177	-0.691641	-0.292134	1.044473	-0.499526	-0.293079	1.043499	-0.606252	-0.294424	1.051114	-0.549150	-0.238822	0.806368	-0.380661	-0.222912	0.748993	-0.377782	-0.159837	0.764475	-0.370648	-0.169000	0.825208	-0.374079	-0.255420	0.421460	-0.370067	-0.269244	0.380481	-0.373220	-0.210056	0.368015	-0.380590	-0.201039	0.407640	-0.381215	-0.344481	0.146983	-0.427123	-0.226831	0.039278	-0.385558	-0.198887	0.041534	-0.452642	-0.176757	0.030553	-0.449276	-0.225631	0.802544	-0.732432	-0.204058	0.744919	-0.731724	-0.142102	0.762217	-0.727073	-0.154630	0.821313	-0.727443	-0.266769	0.384776	-0.725841	-0.279990	0.346434	-0.724286	-0.218843	0.333064	-0.717440	-0.213588	0.376729	-0.720620	-0.355324	0.133450	-0.673983	-0.231062	0.041406	-0.719487	-0.198537	0.042298	-0.657361	-0.176802	0.031006	-0.657378	
257	1.2850	-0.000000	0.000000	-0.000000	-0.220610	1.448361	-0.722388	-0.232704	1.430926	-0.383025	-0.157028	1.406315	-0.553637	-0.138419	1.003648	-0.438571	-0.132004	1.004612	-0.659801	-0.192296	1.063644	-0.414622	-0.186917	1.055602	-0.691704	-0.291693	1.047103	-0.499759	-0.292595	1.046226	-0.606449	-0.294004	1.053741	-0.549384	-0.239293	0.808550	-0.381098	-0.223576	0.751123	-0.378145	-0.160620	0.766474	-0.370728	-0.169452	0.827156	-0.373987	-0.255799	0.422959	-0.370200	-0.269353	0.381932	-0.373293	-0.210081	0.369803	-0.380568	-0.201299	0.409499	-0.381188	-0.343372	0.148375	-0.426533	-0.225936	0.040637	-0.385696	-0.198117	0.042551	-0.452235	-0.176184	0.031320	-0.448412	-0.225988	0.804983	-0.732428	-0.204535	0.747311	-0.731960	-0.142497	0.764468	-0.727879	-0.154909	0.823571	-0.728049	-0.266593	0.386473	-0.726299	-0.279644	0.348077	-0.724817	-0.218440	0.334935	-0.717872	-0.213370	0.378627	-0.720979	-0.354469	0.134923	-0.674917	-0.230106	0.042794	-0.719798	-0.197597	0.043839	-0.658169	-0.175893	0.032553	-0.658406	
258	1.2900	-0.000000	0.000000	-0.000000	-0.000000	0.000000	-0.000000	-0.232838	1.433098	-0.383308	-0.157218	1.408561	-0.553636	-0.138420	1.005464	-0.438842	-0.131797	1.006538	-0.659851	-0.192144	1.065671	-0.414870	-0.186538	1.057743	-0.691783	-0.291332	1.049455	-0.499987	-0.292197	1.048660	-0.606646	-0.293652	1.056094	-0.549616	-0.239759	0.810453	-0.381610	-0.224223	0.752982	-0.378614	-0.161383	0.768218	-0.370853	-0.169921	0.828863	-0.373924	-0.256014	0.424272	-0.370317	-0.269351	0.383198	-0.373355	-0.210018	0.371347	-0.380630	-0.201435	0.411102	-0.381232	-0.342570	0.149585	-0.426000	-0.225012	0.042156	-0.385700	-0.197313	0.043743	-0.451824	-0.175506	0.032346	-0.447583	-0.226369	0.807061	-0.732324	-0.205003	0.749352	-0.732081	-0.142895	0.766410	-0.728646	-0.155227	0.825507	-0.728632	-0.266289	0.387976	-0.726810	-0.279225	0.349552	-0.725378	-0.218008	0.336555	-0.718183	-0.213048	0.380266	-0.721262	-0.353871	0.136169	-0.675773	-0.229140	0.044384	-0.720257	-0.196566	0.045592	-0.658970	-0.174855	0.034298	-0.659333	
259	1.2950	-0.000000	0.000000	-0.000000	-0.000000	0.000000	-0.000000	-0.232938	1.434956	-0.383569	-0.157346	1.410481	-0.553642	-0.138457	1.007045	-0.439100	-0.131644	1.008210	-0.659915	-0.192044	1.067438	-0.415108	-0.186241	1.059596	-0.691882	-0.291052	1.051518	-0.500214	-0.291887	1.050795	-0.606849	-0.293367	1.058165	-0.549851	-0.240213	0.812080	-0.382192	-0.224840	0.754566	-0.379167	-0.162112	0.769701	-0.371014	-0.170392	0.830329	-0.373902	-0.256055	0.425409	-0.370413	-0.269235	0.384302	-0.373392	-0.209866	0.372666	-0.380771	-0.201436	0.412454	-0.381372	-0.342078	0.150596	-0.425543	-0.224064	0.043825	-0.385569	-0.196467	0.045131	-0.451413	-0.174713	0.033668	-0.446821	-0.226766	0.808768	-0.732132	-0.205452	0.751039	-0.732090	-0.143284	0.768035	-0.729367	-0.155576	0.827128	-0.729197	-0.265862	0.389305	-0.727345	-0.278753	0.350869	-0.725951	-0.217559	0.337935	-0.718380	-0.212636	0.381654	-0.721470	-0.353513	0.137193	-0.676542	-0.228168	0.046165	-0.720856	-0.195494	0.047498	-0.659738	-0.173741	0.036182	-0.660136	
260	1.3000	-0.000000	0.000000	-0.000000	-0.000000	0.000000	-0.000000	-0.233015	1.436502	-0.383795	-0.157406	1.412071	-0.553657	-0.138530	1.008397	-0.439339	-0.131539	1.009631	-0.659995	-0.191992	1.068940	-0.415333	-0.186026	1.061155	-0.692001	-0.290855	1.053284	-0.500441	-0.291661	1.052615	-0.607055	-0.293159	1.059931	-0.550073	-0.240647	0.813443	-0.382812	-0.225411	0.755883	-0.379780	-0.162776	0.770927	-0.371199	-0.170855	0.831556	-0.373928	-0.255923	0.426388	-0.370488	-0.269007	0.385261	-0.373395	-0.209628	0.373768	-0.380980	-0.201306	0.413581	-0.381593	-0.341866	0.151402	-0.425201	-0.223090	0.045622	-0.385321	-0.195577	0.046704	-0.450998	-0.173808	0.035282	-0.446146	-0.227172	0.810102	-0.731868	-0.205872	0.752370	-0.731997	-0.143664	0.769345	-0.730019	-0.155954	0.828432	-0.729737	-0.265342	0.390470	-0.727905	-0.278239	0.352040	-0.726534	-0.217098	0.339094	-0.718481	-0.212146	0.382797	-0.721613	-0.353361	0.138009	-0.677237	-0.227187	0.048092	-0.721541	-0.194427	0.049484	-0.660465	-0.172606	0.038126	-0.660834	
261	1.3050	-0.000000	0.000000	-0.000000	-0.000000	0.000000	-0.000000	-0.233079	1.437742	-0.383983	-0.157392	1.413333	-0.553680	-0.138639	1.009525	-0.439549	-0.131483	1.010800	-0.660093	-0.191993	1.070182	-0.415538	-0.185896	1.062415	-0.692138	-0.290741	1.054744	-0.500665	-0.291517	1.054110	-0.607263	-0.293026	1.061398	-0.550294	-0.241052	0.814536	-0.383424	-0.225931	0.756932	-0.380426	-0.163368	0.771905	-0.371405	-0.171304	0.832534	-0.374004	-0.255628	0.427236	-0.370546	-0.268674	0.386082	-0.373374	-0.209306	0.374663	-0.381256	-0.201056	0.414483	-0.381938	-0.341902	0.151998	-0.425010	-0.222101	0.047522	-0.384979	-0.194645	0.048434	-0.450588	-0.172795	0.037134	-0.445584	-0.227588	0.811069	-0.731549	-0.206256	0.753351	-0.731822	-0.144023	0.770358	-0.730593	-0.156361	0.829426	-0.730240	-0.264731	0.391470	-0.728436	-0.277685	0.353067	-0.727081	-0.216625	0.340037	-0.718504	-0.211590	0.383719	-0.721696	-0.353376	0.138625	-0.677873	-0.226211	0.050108	-0.722250	-0.193416	0.051483	-0.661144	-0.171504	0.040067	-0.661451	
